<svg xmlns="http://www.w3.org/2000/svg" width="256" height="256"><path fill-opacity=".251" d="M0 128.004v128.004l128.25-.254 128.25-.254.254-127.75L257.008 0H0v128.004m.485.496c0 70.4.119 99.053.265 63.672.146-35.38.146-92.98 0-128C.604 29.153.485 58.1.485 128.5" fill="#1976D2" fill-rule="evenodd"/><path fill-opacity=".147" d="M0 128.004v128.004l128.25-.254 128.25-.254.254-127.75L257.008 0H0v128.004m.485.496c0 70.4.119 99.053.265 63.672.146-35.38.146-92.98 0-128C.604 29.153.485 58.1.485 128.5m12.515.004v115.504l115.25-.254 115.25-.254.254-115.25.254-115.25H13v115.504m178-89.523V60h45.041l-.271-20.75-.27-20.75-22.25-.269-22.25-.269v21.019M23.25 56.601c-.986.446-1.25 19.221-1.25 88.998v88.433l27.75-.266 27.75-.266.263-35.862.263-35.861 4.737.665c7.692 1.081 10.653 2.374 14.479 6.324 2.149 2.219 10.284 16.11 20.048 34.234l16.431 30.5 31.139.264c17.127.146 31.14.043 31.14-.227s-6.213-12.573-13.807-27.34c-13.247-25.758-19.069-35.007-26.343-41.847-3.521-3.311-10.437-7.35-12.585-7.35-3.29 0-.599-1.821 5.679-3.843 6.719-2.164 16.072-8.147 20.736-13.265 13.139-14.419 16.062-39.654 6.726-58.078-3.661-7.224-12.092-15.307-19.632-18.82-12.08-5.628-17.813-6.111-77.774-6.556-29.975-.222-55.062-.149-55.75.163M191 104.981V126h21.038l-.661 2.75c-1.856 7.721-7.213 13.715-16.127 18.043-1.787.867-3.25 2.228-3.25 3.024 0 2.776 8.355 17.183 9.965 17.183 2.716 0 14.126-7.259 20.212-12.858 11.277-10.376 14.133-21.201 13.624-51.642l-.301-18-22.25-.269-22.25-.269v21.019M78 110.5V128l13.25-.035c25.687-.068 34.736-4.56 34.746-17.247.011-14.044-6.806-17.674-33.246-17.702L78 93v17.5" fill="#1976D2" fill-rule="evenodd"/><path fill-opacity=".491" d="M0 128.004v128.004l128.25-.254 128.25-.254.254-127.75L257.008 0H0v128.004m.485.496c0 70.4.119 99.053.265 63.672.146-35.38.146-92.98 0-128C.604 29.153.485 58.1.485 128.5m12.515 0V244h231V13H13v115.5M191.446 19.279c-.27.704-.368 10.042-.218 20.75L191.5 59.5h44l.284-18.5c.157-10.175.036-19.512-.269-20.75-.552-2.246-.587-2.25-22.065-2.25-16.552 0-21.626.295-22.004 1.279M22.486 58.184c-.276.724-.386 40.466-.244 88.316l.258 87 27.237.266 27.238.266.262-35.766.263-35.766 5.5.045c7.154.059 12.408 2.665 16.361 8.116 1.727 2.38 10.296 17.605 19.044 33.833L134.311 234h30.461c29.914 0 30.452-.036 29.941-1.989-.286-1.094-6.642-13.807-14.125-28.25-16.333-31.528-22.002-39.198-33.012-44.668l-6.858-3.408 7.6-2.682c4.18-1.476 9.308-3.813 11.397-5.195 14.948-9.893 23.635-28.572 21.769-46.808-2.253-22.014-14.838-36.483-36.237-41.666-5.727-1.387-15.479-1.697-64.503-2.05-47.111-.338-57.849-.173-58.258.9m168.96 27.095c-.27.704-.368 10.042-.218 20.75l.272 19.471 10.25.285c11.391.317 11.463.375 8.697 6.997-2.052 4.912-5.698 8.606-12.697 12.864-3.162 1.925-5.75 3.804-5.75 4.178 0 1.211 8.057 16.093 9.043 16.703 1.402.866 11.905-5.004 18.626-10.409 5.95-4.785 11.549-12.774 13.389-19.104 2.423-8.337 4.163-46.668 2.335-51.432-.527-1.374-3.418-1.582-22.031-1.582-16.481 0-21.538.295-21.916 1.279M77.227 110.75l.273 17.75 10.349.286c12.012.332 27.025-1.925 31.584-4.748 4.694-2.908 6.9-7.467 6.9-14.263 0-6.235-1.549-9.354-6.472-13.03-3.972-2.965-9.201-3.696-26.634-3.721L76.954 93l.273 17.75" fill="#1976D2" fill-rule="evenodd"/><path fill-opacity=".976" d="M0 128.004v128.004l128.25-.254 128.25-.254.254-127.75L257.008 0H0v128.004m.485.496c0 70.4.119 99.053.265 63.672.146-35.38.146-92.98 0-128C.604 29.153.485 58.1.485 128.5M12.667 12.667c-.367.366-.667 52.566-.667 116V244h232V12H128.667c-63.434 0-115.634.3-116 .667M192 39.52v20.52l21.25-.27 21.25-.27.271-20.25.27-20.25H192v20.52M23 144.92V233h54v-71h5.032c2.768 0 6.705.699 8.75 1.553 7.589 3.17 8.574 4.644 31.189 46.697L134.206 233h60.964l-13.189-25.75c-7.255-14.162-15.112-28.45-17.461-31.75-5.85-8.22-13.154-14.813-18.798-16.968-2.597-.992-4.722-2.156-4.722-2.587 0-.432 2.362-1.558 5.25-2.503 9.169-3.001 15.022-6.527 21.282-12.821 9.523-9.574 13.444-19.672 13.444-34.621 0-14.676-3.941-25.068-12.921-34.067-6.647-6.662-13.635-10.154-25.066-12.528-7.358-1.528-15.916-1.817-64.239-2.164L23 56.84v88.08M192 105v20H212.263l-.532 3.972c-1.009 7.516-4.91 11.701-18.233 19.558-1.591.938-1.327 1.805 2.971 9.755l4.718 8.726 7.125-3.744c9.877-5.191 18.697-13.667 22.092-21.232 3.806-8.481 4.584-14.797 4.59-37.285L235 85h-43v20M77.462 93.239c-.282.734-.388 8.968-.237 18.298L77.5 128.5l11.5.325c11.617.328 22.896-.986 28.618-3.334 8.164-3.349 11.677-14.805 7.197-23.468-4.049-7.831-10.322-9.692-33.578-9.964-10.249-.12-13.379.148-13.775 1.18" fill="#1976D2" fill-rule="evenodd"/></svg>